<svg width="32" height="32" viewBox="0 0 32 32" fill="none" xmlns="http://www.w3.org/2000/svg">
<g clip-path="url(#clip0_531_2)">
<path d="M24 0H8C3.58172 0 0 3.58172 0 8V24C0 28.4183 3.58172 32 8 32H24C28.4183 32 32 28.4183 32 24V8C32 3.58172 28.4183 0 24 0Z" fill="#0339B8"/>
<path d="M11.7257 20.8H20.2743C20.4267 20.8 20.5486 20.7543 20.64 20.6629C20.7467 20.5562 20.8 20.4267 20.8 20.2743V18.1257C20.8 17.9733 20.7467 17.8514 20.64 17.76C20.5486 17.6533 20.4267 17.6 20.2743 17.6H11.7257C11.5733 17.6 11.4438 17.6533 11.3371 17.76C11.2457 17.8514 11.2 17.9733 11.2 18.1257V20.2743C11.2 20.4267 11.2457 20.5562 11.3371 20.6629C11.4438 20.7543 11.5733 20.8 11.7257 20.8ZM11.7257 14.4H20.2743C20.4267 14.4 20.5486 14.3543 20.64 14.2629C20.7467 14.1562 20.8 14.0267 20.8 13.8743V11.7257C20.8 11.5733 20.7467 11.4514 20.64 11.36C20.5486 11.2533 20.4267 11.2 20.2743 11.2H11.7257C11.5733 11.2 11.4438 11.2533 11.3371 11.36C11.2457 11.4514 11.2 11.5733 11.2 11.7257V13.8743C11.2 14.0267 11.2457 14.1562 11.3371 14.2629C11.4438 14.3543 11.5733 14.4 11.7257 14.4ZM8 20.8V11.2C8 10.3162 8.31238 9.5619 8.93714 8.93714C9.5619 8.31238 10.3162 8 11.2 8H20.8C21.6838 8 22.4381 8.31238 23.0629 8.93714C23.6876 9.5619 24 10.3162 24 11.2V13.2571C24 14.019 23.7333 14.6667 23.2 15.2L22.4 16L23.2 16.8C23.7333 17.3333 24 17.981 24 18.7429V20.8C24 21.6838 23.6876 22.4381 23.0629 23.0629C22.4381 23.6876 21.6838 24 20.8 24H11.2C10.3162 24 9.5619 23.6876 8.93714 23.0629C8.31238 22.4381 8 21.6838 8 20.8Z" fill="white"/>
</g>
<defs>
<clipPath id="clip0_531_2">
<rect width="32" height="32" fill="white"/>
</clipPath>
</defs>
</svg>
